<?xml version="1.0" standalone="no"?>
<!DOCTYPE svg PUBLIC "-//W3C//DTD SVG 20010904//EN"
 "http://www.w3.org/TR/2001/REC-SVG-20010904/DTD/svg10.dtd">
<svg version="1.0" xmlns="http://www.w3.org/2000/svg"
 width="30.000000pt" height="30.000000pt" viewBox="0 0 30.000000 30.000000"
 preserveAspectRatio="xMidYMid meet">

<g transform="translate(0.000000,30.000000) scale(0.100000,-0.100000)"
fill="#000000" stroke="none">
<path d="M81 252 c-66 -33 -52 -42 69 -42 85 0 111 3 108 13 -6 19 -70 47
-108 47 -19 0 -50 -8 -69 -18z"/>
<path d="M35 179 c-15 -23 15 -30 121 -27 89 2 109 6 109 18 0 12 -20 16 -112
18 -74 2 -114 -1 -118 -9z"/>
<path d="M30 120 c0 -6 47 -10 120 -10 73 0 120 4 120 10 0 6 -47 10 -120 10
-73 0 -120 -4 -120 -10z"/>
<path d="M42 73 c3 -16 16 -18 108 -18 92 0 105 2 108 18 3 15 -7 17 -108 17
-101 0 -111 -2 -108 -17z"/>
</g>
</svg>
