<?xml version="1.0" encoding="UTF-8"?>
<svg xmlns="http://www.w3.org/2000/svg" xmlns:xlink="http://www.w3.org/1999/xlink" width="80px" height="80px" viewBox="0 0 80 80" version="1.1">
<g id="surface1">
<path style=" stroke:none;fill-rule:nonzero;fill:rgb(0%,0%,0%);fill-opacity:1;" d="M 33.445312 14.875 C 33.367188 15.132812 33.285156 15.410156 33.265625 15.492188 C 33.257812 15.582031 33.167969 15.722656 33.078125 15.832031 C 32.917969 16 32.917969 16.019531 33.078125 16.191406 C 33.203125 16.332031 33.222656 16.394531 33.140625 16.476562 C 33.0625 16.554688 33.078125 16.628906 33.222656 16.78125 C 33.492188 17.066406 33.421875 17.296875 33.035156 17.335938 C 32.640625 17.371094 32.539062 17.46875 32.710938 17.636719 C 32.78125 17.71875 32.820312 17.800781 32.792969 17.835938 C 32.710938 17.914062 32.191406 17.898438 32.082031 17.816406 C 31.910156 17.664062 31.507812 17.53125 31.507812 17.628906 C 31.507812 17.878906 31.949219 18.140625 32.566406 18.246094 C 33.277344 18.363281 33.394531 18.445312 33.132812 18.621094 C 33.035156 18.695312 32.945312 18.863281 32.925781 19.007812 C 32.898438 19.25 32.863281 19.285156 32.421875 19.363281 L 31.957031 19.453125 L 32.144531 19.652344 C 32.414062 19.917969 32.289062 20.035156 31.722656 20.035156 C 31.382812 20.035156 31.238281 20.070312 31.257812 20.144531 C 31.285156 20.222656 31.902344 20.472656 32.488281 20.636719 C 32.566406 20.652344 32.59375 20.742188 32.558594 20.929688 C 32.523438 21.074219 32.539062 21.214844 32.585938 21.242188 C 32.890625 21.429688 32.433594 21.78125 31.75 21.894531 C 31.453125 21.949219 31.375 22.003906 31.375 22.136719 C 31.375 22.246094 31.300781 22.324219 31.195312 22.34375 C 30.898438 22.398438 30.835938 22.53125 31.066406 22.613281 C 31.375 22.726562 31.9375 22.648438 32.371094 22.433594 C 32.578125 22.324219 32.800781 22.273438 32.890625 22.296875 C 33.277344 22.449219 32.476562 23.058594 31.644531 23.265625 C 31.023438 23.40625 30.96875 23.496094 31.382812 23.667969 C 31.625 23.765625 31.875 23.800781 32.199219 23.765625 C 32.460938 23.738281 32.691406 23.746094 32.71875 23.792969 C 32.808594 23.9375 32.191406 24.300781 31.777344 24.355469 C 31.535156 24.382812 31.230469 24.355469 31.015625 24.277344 C 30.539062 24.113281 30.519531 24.113281 30.519531 24.390625 C 30.519531 24.777344 30.863281 25.375 31.203125 25.582031 C 31.410156 25.714844 31.507812 25.839844 31.507812 25.992188 C 31.507812 26.109375 31.554688 26.207031 31.597656 26.207031 C 31.652344 26.207031 31.6875 26.253906 31.6875 26.304688 C 31.6875 26.378906 31.5625 26.394531 31.335938 26.359375 C 31.078125 26.332031 30.96875 26.351562 30.933594 26.441406 C 30.90625 26.511719 30.824219 26.566406 30.746094 26.566406 C 30.574219 26.566406 30.574219 26.746094 30.753906 26.996094 C 30.953125 27.273438 30.84375 27.351562 30.53125 27.164062 C 30.199219 26.96875 30.160156 26.976562 30.160156 27.183594 C 30.160156 27.28125 30.261719 27.433594 30.386719 27.53125 C 30.636719 27.726562 30.683594 27.953125 30.484375 28.023438 C 30.324219 28.085938 29.75 27.941406 29.425781 27.765625 C 29.101562 27.59375 29.03125 27.746094 29.289062 28.050781 C 29.453125 28.238281 29.605469 28.300781 29.964844 28.335938 C 30.222656 28.355469 30.457031 28.40625 30.484375 28.453125 C 30.53125 28.53125 30.144531 28.746094 29.785156 28.835938 C 29.613281 28.871094 29.558594 28.9375 29.597656 29.050781 C 29.621094 29.175781 29.558594 29.25 29.363281 29.339844 C 29.210938 29.402344 29.085938 29.480469 29.085938 29.527344 C 29.085938 29.640625 29.246094 29.703125 29.308594 29.605469 C 29.363281 29.515625 29.800781 29.480469 29.800781 29.5625 C 29.800781 29.589844 29.722656 29.703125 29.621094 29.8125 C 29.460938 29.980469 29.363281 30 28.742188 29.972656 C 28.367188 29.964844 28.015625 29.910156 27.960938 29.867188 C 27.835938 29.742188 28.050781 29.578125 28.464844 29.472656 C 28.984375 29.347656 28.933594 29.148438 28.347656 29.023438 C 28.203125 29 28.097656 28.917969 28.097656 28.847656 C 28.097656 28.746094 28.203125 28.710938 28.535156 28.710938 C 29.046875 28.710938 29.265625 28.542969 29.011719 28.335938 C 28.933594 28.265625 28.699219 28.113281 28.5 27.996094 C 28.070312 27.738281 28 27.648438 28.0625 27.40625 C 28.097656 27.28125 28.050781 27.199219 27.898438 27.128906 C 27.78125 27.074219 27.558594 26.921875 27.40625 26.796875 C 27 26.46875 27.101562 26.296875 27.683594 26.296875 C 28.097656 26.296875 28.464844 26.179688 28.367188 26.089844 C 28.339844 26.074219 28.203125 26.011719 28.050781 25.964844 C 27.855469 25.902344 27.792969 25.832031 27.808594 25.699219 C 27.828125 25.597656 27.773438 25.492188 27.691406 25.464844 C 27.488281 25.382812 27.523438 24.847656 27.738281 24.660156 C 27.980469 24.453125 27.972656 24.417969 27.566406 24.035156 C 27.226562 23.722656 27.21875 23.710938 27.164062 23.910156 C 27.136719 24.015625 27.109375 24.277344 27.109375 24.480469 C 27.109375 24.785156 27.066406 24.882812 26.847656 25.035156 C 26.707031 25.144531 26.5 25.222656 26.398438 25.222656 C 26.238281 25.222656 26.210938 25.269531 26.230469 25.464844 C 26.257812 25.679688 26.210938 25.714844 25.90625 25.804688 C 25.484375 25.921875 25.394531 26.074219 25.691406 26.164062 C 26.078125 26.277344 26.570312 26.511719 26.570312 26.582031 C 26.570312 26.617188 26.472656 26.71875 26.355469 26.796875 C 26.230469 26.871094 26.121094 27.019531 26.105469 27.128906 C 26.085938 27.261719 25.988281 27.335938 25.800781 27.378906 C 25.421875 27.449219 25.3125 27.53125 25.3125 27.738281 C 25.3125 27.953125 25.554688 28.445312 25.664062 28.445312 C 25.699219 28.445312 25.71875 28.558594 25.691406 28.710938 C 25.65625 28.9375 25.683594 28.980469 25.835938 28.980469 C 25.933594 28.980469 26.03125 28.9375 26.050781 28.882812 C 26.078125 28.808594 26.175781 28.820312 26.363281 28.925781 C 27.019531 29.257812 26.832031 29.410156 25.789062 29.390625 C 25.082031 29.382812 25.035156 29.390625 24.992188 29.578125 C 24.964844 29.6875 24.972656 29.828125 25.007812 29.894531 C 25.0625 29.980469 25.054688 29.992188 24.945312 29.902344 C 24.792969 29.777344 24.417969 29.847656 24.417969 30 C 24.417969 30.0625 24.390625 30.0625 24.34375 30.007812 C 24.273438 29.902344 23.511719 29.695312 23.410156 29.75 C 23.367188 29.777344 23.339844 29.929688 23.339844 30.097656 C 23.339844 30.367188 23.304688 30.410156 23.023438 30.511719 C 22.65625 30.644531 22.628906 30.886719 22.980469 30.929688 C 23.464844 31 23.582031 31.378906 23.203125 31.628906 C 23.050781 31.726562 22.980469 31.851562 22.980469 32.019531 C 22.980469 32.164062 22.917969 32.289062 22.835938 32.324219 C 22.613281 32.40625 21.992188 32.386719 21.992188 32.296875 C 21.992188 32.136719 21.410156 31.582031 21.148438 31.484375 C 20.65625 31.304688 20.644531 31.59375 21.09375 32.78125 C 21.257812 33.230469 21.632812 34.542969 21.777344 35.214844 C 21.867188 35.625 21.964844 35.957031 22 35.957031 C 22.039062 35.957031 22.082031 35.804688 22.101562 35.617188 C 22.117188 35.359375 22.171875 35.277344 22.324219 35.257812 C 22.46875 35.242188 22.558594 35.304688 22.65625 35.492188 C 22.730469 35.636719 22.855469 35.777344 22.933594 35.804688 C 23.195312 35.914062 23.078125 36.128906 22.703125 36.234375 C 22.421875 36.324219 22.296875 36.324219 22.164062 36.242188 C 22.074219 36.179688 21.976562 36.136719 21.949219 36.136719 C 21.859375 36.136719 21.902344 36.671875 21.992188 36.679688 C 22.046875 36.691406 22.117188 36.699219 22.164062 36.707031 C 22.316406 36.726562 22.386719 36.851562 22.246094 36.851562 C 22.171875 36.851562 22.039062 36.933594 21.9375 37.039062 C 21.796875 37.191406 21.796875 37.234375 21.902344 37.296875 C 22.144531 37.460938 22.523438 37.398438 23.277344 37.074219 C 23.519531 36.976562 23.464844 37.234375 23.1875 37.496094 C 22.882812 37.773438 22.578125 37.933594 22.21875 38.015625 C 21.886719 38.078125 21.8125 38.335938 22.101562 38.460938 C 22.460938 38.613281 22.648438 38.800781 22.648438 39.042969 C 22.640625 39.339844 22.578125 39.410156 22.15625 39.515625 C 21.910156 39.578125 21.796875 39.578125 21.742188 39.507812 C 21.589844 39.300781 21.4375 38.828125 21.5 38.730469 C 21.535156 38.675781 21.488281 38.53125 21.410156 38.40625 C 21.328125 38.28125 21.292969 38.113281 21.320312 38.003906 C 21.355469 37.90625 21.328125 37.765625 21.265625 37.691406 C 21.140625 37.539062 21.085938 37.273438 21.066406 36.609375 C 21.058594 36.359375 21.023438 36.117188 20.976562 36.082031 C 20.941406 36.046875 20.914062 35.921875 20.914062 35.796875 C 20.914062 35.679688 20.816406 35.464844 20.691406 35.3125 C 20.566406 35.171875 20.464844 34.957031 20.464844 34.839844 C 20.464844 34.554688 20.378906 34.339844 20.277344 34.402344 C 20.234375 34.425781 20.199219 34.578125 20.199219 34.730469 C 20.1875 35.117188 19.992188 35.839844 19.855469 35.976562 C 19.695312 36.136719 19.722656 36.296875 19.929688 36.402344 C 20.027344 36.457031 20.109375 36.582031 20.109375 36.679688 C 20.109375 36.84375 20.070312 36.859375 19.867188 36.816406 C 19.722656 36.769531 19.605469 36.789062 19.558594 36.859375 C 19.488281 36.984375 19.660156 37.386719 19.875 37.558594 C 20.070312 37.71875 20.054688 38.078125 19.855469 38.140625 C 19.757812 38.175781 19.597656 38.292969 19.480469 38.417969 L 19.273438 38.632812 L 19.507812 38.738281 C 20.144531 39.023438 19.730469 39.5625 18.777344 39.703125 C 18.554688 39.730469 18.355469 39.804688 18.339844 39.855469 C 18.320312 39.910156 18.492188 40.042969 18.714844 40.152344 C 18.949219 40.257812 19.121094 40.394531 19.09375 40.457031 C 19.074219 40.519531 18.84375 40.582031 18.574219 40.609375 C 18.015625 40.660156 17.925781 40.832031 18.355469 41.046875 C 18.957031 41.332031 19.023438 41.367188 19.023438 41.457031 C 19.023438 41.511719 18.753906 41.539062 18.347656 41.53125 C 17.863281 41.519531 17.683594 41.546875 17.710938 41.617188 C 17.773438 41.816406 18.320312 42.121094 18.816406 42.21875 C 19.640625 42.386719 19.40625 42.574219 18.347656 42.574219 C 17.980469 42.574219 17.683594 42.613281 17.683594 42.664062 C 17.683594 42.816406 18.097656 43.023438 18.617188 43.128906 C 19.09375 43.230469 19.164062 43.230469 19.46875 43.058594 C 19.722656 42.925781 19.867188 42.898438 20.035156 42.953125 C 20.207031 43.015625 20.339844 42.988281 20.59375 42.835938 C 20.90625 42.648438 20.914062 42.636719 20.78125 42.433594 C 20.65625 42.234375 20.664062 42.199219 20.914062 41.796875 C 21.058594 41.566406 21.183594 41.289062 21.183594 41.171875 C 21.183594 40.804688 21.335938 40.957031 21.390625 41.367188 C 21.4375 41.84375 21.464844 41.886719 21.660156 41.808594 C 21.785156 41.761719 21.9375 41.554688 22.308594 40.964844 C 22.359375 40.886719 22.488281 40.699219 22.601562 40.554688 C 22.972656 40.082031 25.234375 36.921875 25.324219 36.746094 C 25.421875 36.566406 25.367188 36.269531 25.25 36.339844 C 25.207031 36.359375 25.082031 36.289062 24.957031 36.171875 C 24.765625 35.984375 24.757812 35.957031 24.902344 35.957031 C 25.082031 35.957031 25.394531 35.625 25.402344 35.410156 C 25.402344 35.339844 25.222656 35.125 25 34.9375 C 24.777344 34.742188 24.597656 34.5625 24.597656 34.527344 C 24.597656 34.488281 24.722656 34.425781 24.882812 34.382812 C 25.277344 34.265625 25.3125 34.078125 24.9375 34.078125 C 24.777344 34.078125 24.578125 34.035156 24.507812 33.988281 C 24.398438 33.917969 24.425781 33.882812 24.660156 33.792969 C 25.109375 33.621094 25.089844 33.480469 24.613281 33.253906 C 24.039062 32.980469 24.03125 32.808594 24.597656 32.574219 C 25.214844 32.316406 25.214844 32.085938 24.597656 31.824219 C 24.121094 31.628906 24.03125 31.492188 24.328125 31.421875 C 24.542969 31.367188 24.550781 31.242188 24.371094 31.039062 C 24.246094 30.894531 24.265625 30.875 24.605469 30.832031 C 25 30.777344 25.007812 30.789062 25.746094 31.367188 L 25.988281 31.554688 L 25.746094 31.617188 C 25.441406 31.699219 25.429688 31.753906 25.710938 32.011719 C 25.835938 32.128906 25.941406 32.308594 25.960938 32.414062 C 25.976562 32.53125 26.121094 32.664062 26.328125 32.765625 C 26.707031 32.953125 26.757812 33.09375 26.464844 33.09375 C 26.347656 33.09375 26.203125 33.128906 26.132812 33.175781 C 25.976562 33.273438 26.066406 33.542969 26.246094 33.542969 C 26.3125 33.542969 26.4375 33.640625 26.507812 33.757812 C 26.632812 33.945312 26.632812 33.988281 26.472656 34.25 C 26.382812 34.402344 26.238281 34.527344 26.167969 34.527344 C 25.960938 34.527344 25.898438 34.777344 26.03125 35.027344 C 26.175781 35.285156 26.4375 35.304688 26.570312 35.0625 C 26.652344 34.910156 27.109375 34.792969 27.109375 34.929688 C 27.109375 34.945312 26.796875 35.402344 26.417969 35.929688 C 26.042969 36.457031 25.628906 37.039062 25.503906 37.21875 C 25.378906 37.398438 24.964844 37.960938 24.597656 38.46875 C 24.226562 38.980469 23.714844 39.703125 23.457031 40.070312 C 23.195312 40.4375 22.835938 40.957031 22.648438 41.226562 C 22.460938 41.484375 22.269531 41.761719 22.21875 41.84375 C 22.171875 41.921875 22.039062 42.085938 21.929688 42.210938 C 21.722656 42.433594 21.660156 42.664062 21.796875 42.664062 C 21.832031 42.664062 21.902344 42.753906 21.949219 42.863281 C 22 42.980469 22.089844 43.078125 22.15625 43.078125 C 22.359375 43.105469 22.359375 43.113281 22.226562 43.253906 C 22.101562 43.382812 22.101562 43.425781 22.207031 43.632812 C 22.28125 43.765625 22.359375 43.945312 22.386719 44.035156 C 22.414062 44.125 22.476562 44.175781 22.523438 44.148438 C 22.566406 44.125 22.648438 44.160156 22.710938 44.230469 C 22.828125 44.375 22.738281 44.425781 21.992188 44.640625 C 21.4375 44.792969 21.398438 44.820312 21.589844 44.964844 C 21.785156 45.097656 22.289062 45.117188 22.53125 44.992188 C 22.792969 44.847656 23.492188 44.980469 23.546875 45.179688 C 23.574219 45.277344 23.625 45.347656 23.671875 45.347656 C 23.832031 45.339844 24.730469 44.847656 24.730469 44.765625 C 24.730469 44.714844 24.507812 44.660156 24.238281 44.632812 C 23.816406 44.597656 23.742188 44.5625 23.742188 44.410156 C 23.742188 44.257812 23.816406 44.230469 24.148438 44.203125 C 24.722656 44.167969 24.820312 44.125 24.6875 43.960938 C 24.605469 43.863281 24.597656 43.800781 24.675781 43.703125 C 24.730469 43.640625 24.757812 43.523438 24.722656 43.445312 C 24.648438 43.246094 24.839844 42.933594 25.027344 42.933594 C 25.261719 42.933594 25.402344 43.113281 25.402344 43.390625 C 25.402344 43.550781 25.53125 43.757812 25.789062 44.015625 C 26.058594 44.300781 26.167969 44.480469 26.167969 44.679688 C 26.167969 44.882812 26.210938 44.957031 26.375 44.972656 C 26.488281 44.992188 26.570312 45.0625 26.570312 45.160156 C 26.570312 45.242188 26.625 45.367188 26.6875 45.429688 C 26.777344 45.519531 26.769531 45.5625 26.644531 45.652344 C 26.554688 45.714844 26.480469 45.8125 26.480469 45.867188 C 26.480469 45.921875 26.320312 46.011719 26.121094 46.0625 C 25.449219 46.242188 25.800781 46.449219 26.597656 46.339844 C 26.847656 46.304688 27.136719 46.296875 27.226562 46.316406 C 27.414062 46.351562 27.433594 46.566406 27.246094 46.636719 C 27.046875 46.707031 27.082031 46.957031 27.289062 46.957031 C 27.378906 46.957031 27.648438 46.894531 27.882812 46.816406 C 28.195312 46.707031 28.355469 46.699219 28.535156 46.769531 C 28.664062 46.824219 29.101562 46.84375 29.535156 46.816406 C 30.996094 46.734375 32.71875 46.71875 32.808594 46.78125 C 32.945312 46.886719 33.332031 46.914062 33.464844 46.832031 C 33.527344 46.796875 33.867188 46.746094 34.226562 46.71875 C 34.792969 46.671875 34.902344 46.691406 35.117188 46.859375 C 35.242188 46.96875 35.378906 47.171875 35.414062 47.316406 L 35.476562 47.585938 L 36.246094 47.585938 C 36.679688 47.585938 37.800781 47.539062 38.734375 47.488281 C 40.691406 47.378906 40.671875 47.386719 40.601562 46.65625 C 40.539062 46.0625 40.582031 46.046875 41.75 46.199219 C 43.402344 46.421875 45.296875 46.699219 45.71875 46.78125 C 45.960938 46.832031 46.445312 46.894531 46.796875 46.921875 C 47.15625 46.957031 47.496094 47.019531 47.550781 47.066406 C 47.730469 47.210938 48.050781 47.085938 48.410156 46.734375 C 48.6875 46.46875 48.789062 46.421875 49.003906 46.46875 C 49.191406 46.503906 49.273438 46.484375 49.316406 46.378906 C 49.390625 46.191406 49.316406 46.0625 49.136719 46.0625 C 49.066406 46.0625 49.011719 46.019531 49.011719 45.976562 C 49.011719 45.921875 49.085938 45.886719 49.183594 45.886719 C 49.273438 45.886719 49.398438 45.824219 49.460938 45.75 C 49.523438 45.679688 49.632812 45.617188 49.695312 45.617188 C 49.765625 45.617188 49.867188 45.535156 49.929688 45.4375 C 50.0625 45.222656 50.179688 45.207031 50.179688 45.394531 C 50.179688 45.464844 50.261719 45.527344 50.359375 45.527344 C 50.582031 45.527344 50.773438 45.117188 50.628906 44.945312 C 50.484375 44.777344 50.621094 44.554688 50.890625 44.488281 C 51.015625 44.464844 51.167969 44.425781 51.222656 44.410156 C 51.382812 44.363281 51.714844 44.765625 51.660156 44.917969 C 51.625 45 51.660156 45.082031 51.742188 45.105469 C 51.9375 45.1875 51.921875 45.320312 51.707031 45.375 C 51.605469 45.402344 51.527344 45.464844 51.527344 45.519531 C 51.527344 45.617188 52.117188 45.660156 52.800781 45.625 C 53.132812 45.597656 53.5 45.742188 53.5 45.886719 C 53.5 46.019531 52.863281 46.152344 52.226562 46.152344 C 51.886719 46.152344 51.617188 46.191406 51.617188 46.226562 C 51.617188 46.304688 52.289062 46.519531 53.015625 46.691406 C 53.492188 46.796875 53.769531 46.746094 53.769531 46.554688 C 53.769531 46.429688 54.011719 46.304688 54.128906 46.378906 C 54.265625 46.457031 55.851562 46.441406 55.941406 46.351562 C 56.058594 46.234375 55.78125 45.976562 55.519531 45.976562 C 55.234375 45.976562 54.847656 45.824219 54.847656 45.707031 C 54.847656 45.660156 54.957031 45.617188 55.097656 45.617188 C 55.503906 45.617188 55.734375 45.519531 55.683594 45.382812 C 55.65625 45.3125 55.699219 45.234375 55.78125 45.207031 C 56.042969 45.105469 55.941406 44.8125 55.601562 44.667969 C 55.234375 44.515625 55.261719 44.417969 55.683594 44.410156 C 55.960938 44.410156 55.96875 44.402344 55.996094 43.972656 L 56.023438 43.53125 L 56.625 43.597656 C 57.019531 43.632812 57.179688 43.621094 57.089844 43.570312 C 56.984375 43.496094 56.984375 43.453125 57.128906 43.308594 C 57.207031 43.210938 57.246094 43.113281 57.199219 43.085938 C 57.082031 43.003906 55.554688 42.585938 53.277344 42.003906 C 52.980469 41.921875 52.539062 41.808594 52.289062 41.734375 C 51.734375 41.574219 51.515625 41.511719 49.417969 40.957031 C 48.484375 40.714844 47.324219 40.410156 46.859375 40.285156 C 46.390625 40.160156 45.863281 40.027344 45.683594 39.992188 C 45.511719 39.957031 45.3125 39.894531 45.261719 39.855469 C 45.207031 39.828125 44.992188 39.757812 44.777344 39.714844 C 44.316406 39.617188 42.558594 39.167969 41.785156 38.953125 C 41.488281 38.863281 41.105469 38.765625 40.933594 38.722656 C 40.761719 38.683594 40.429688 38.597656 40.1875 38.542969 C 39.847656 38.453125 39.738281 38.453125 39.648438 38.542969 C 39.570312 38.632812 39.675781 38.785156 40.199219 39.277344 C 40.546875 39.617188 40.84375 39.9375 40.84375 39.980469 C 40.84375 40.035156 40.941406 40.125 41.066406 40.179688 C 41.410156 40.332031 41.335938 40.429688 40.898438 40.429688 C 40.457031 40.429688 40.324219 40.332031 38.996094 39.097656 C 38.125 38.28125 37.59375 37.808594 36.757812 37.074219 C 36.058594 36.457031 34.570312 35.105469 32.628906 33.320312 C 32.089844 32.816406 31.417969 32.21875 31.148438 31.976562 C 30.878906 31.746094 30.539062 31.429688 30.394531 31.296875 C 30.261719 31.152344 30.089844 31.039062 30.027344 31.039062 C 29.972656 31.039062 29.558594 31.539062 29.121094 32.15625 C 28.355469 33.21875 28.089844 33.597656 27.523438 34.375 C 27.28125 34.703125 27.109375 34.742188 27.109375 34.453125 C 27.109375 34.375 27.621094 33.597656 28.230469 32.738281 C 28.851562 31.878906 29.34375 31.136719 29.328125 31.082031 C 29.308594 31.039062 29.148438 30.984375 28.976562 30.964844 C 28.625 30.9375 28.445312 30.707031 28.707031 30.617188 C 28.789062 30.589844 28.996094 30.464844 29.15625 30.347656 C 29.308594 30.234375 29.480469 30.160156 29.535156 30.1875 C 29.667969 30.269531 30.261719 29.917969 30.78125 29.445312 C 31.273438 28.988281 31.5625 28.917969 31.453125 29.285156 C 31.425781 29.382812 31.363281 29.507812 31.320312 29.554688 C 31.238281 29.640625 31.203125 29.964844 31.273438 29.964844 C 31.398438 29.964844 32.21875 29.480469 32.414062 29.285156 C 32.773438 28.945312 33.152344 29.035156 32.953125 29.417969 C 32.78125 29.722656 32.359375 29.917969 30.96875 30.339844 C 30.746094 30.402344 30.566406 30.511719 30.566406 30.5625 C 30.566406 30.699219 31.203125 31.039062 31.464844 31.039062 C 31.570312 31.039062 31.734375 31.101562 31.832031 31.171875 C 31.921875 31.242188 32.089844 31.304688 32.199219 31.304688 C 32.308594 31.304688 32.421875 31.351562 32.449219 31.394531 C 32.488281 31.449219 32.585938 31.484375 32.667969 31.46875 C 32.753906 31.449219 32.925781 31.484375 33.042969 31.546875 C 33.160156 31.601562 33.519531 31.734375 33.84375 31.84375 C 34.164062 31.949219 34.507812 32.066406 34.605469 32.109375 C 34.703125 32.15625 34.882812 32.210938 35.007812 32.226562 C 35.132812 32.253906 35.574219 32.398438 35.996094 32.558594 C 36.417969 32.710938 36.894531 32.871094 37.066406 32.914062 C 37.226562 32.960938 37.40625 33.03125 37.460938 33.085938 C 37.511719 33.140625 37.667969 33.183594 37.800781 33.183594 C 37.933594 33.183594 38.078125 33.21875 38.105469 33.273438 C 38.132812 33.320312 38.230469 33.363281 38.320312 33.363281 C 38.410156 33.363281 38.609375 33.425781 38.742188 33.496094 C 38.886719 33.570312 39.074219 33.632812 39.15625 33.632812 C 39.246094 33.632812 39.507812 33.703125 39.738281 33.800781 C 40.042969 33.917969 40.234375 33.945312 40.386719 33.890625 L 40.601562 33.808594 L 40.394531 33.585938 C 40.277344 33.460938 40.144531 33.363281 40.097656 33.363281 C 39.929688 33.363281 39.316406 32.808594 39.316406 32.648438 C 39.316406 32.34375 39.496094 32.363281 40 32.691406 C 40.457031 32.996094 40.851562 33.066406 40.699219 32.816406 C 40.65625 32.738281 40.710938 32.726562 40.898438 32.773438 C 41.535156 32.933594 41.660156 32.933594 41.875 32.789062 C 42.117188 32.628906 42.460938 32.601562 42.460938 32.738281 C 42.460938 32.78125 42.421875 32.828125 42.371094 32.828125 C 42.324219 32.828125 42.199219 32.90625 42.101562 33.003906 C 41.9375 33.167969 41.9375 33.191406 42.054688 33.238281 C 42.136719 33.273438 42.226562 33.273438 42.253906 33.246094 C 42.332031 33.167969 42.648438 33.363281 42.59375 33.453125 C 42.566406 33.496094 42.386719 33.578125 42.199219 33.632812 C 41.832031 33.730469 41.644531 33.960938 41.875 34.035156 C 41.949219 34.0625 42.074219 34.097656 42.144531 34.125 C 42.246094 34.148438 42.253906 34.210938 42.199219 34.363281 C 42.136719 34.535156 42.171875 34.589844 42.421875 34.722656 C 42.820312 34.9375 43.105469 34.9375 44.34375 34.757812 C 44.910156 34.667969 45.621094 34.570312 45.914062 34.535156 C 47.351562 34.347656 49.074219 34.0625 49.199219 33.988281 C 49.28125 33.953125 49.757812 33.890625 50.261719 33.855469 C 51.320312 33.773438 51.472656 33.667969 51.113281 33.246094 C 50.960938 33.066406 50.898438 32.871094 50.890625 32.574219 C 50.878906 32.34375 50.851562 32.039062 50.816406 31.886719 C 50.746094 31.546875 50.476562 31.484375 50.367188 31.769531 C 50.324219 31.886719 50.222656 32.039062 50.144531 32.101562 C 50.0625 32.164062 50 32.316406 50 32.433594 C 50 32.585938 49.945312 32.648438 49.828125 32.648438 C 49.738281 32.648438 49.46875 32.675781 49.226562 32.710938 L 48.796875 32.765625 L 48.996094 32.558594 C 49.101562 32.441406 49.183594 32.296875 49.164062 32.246094 C 49.128906 32.15625 49.039062 32.15625 48.421875 32.246094 C 47.765625 32.351562 47.53125 31.824219 48.179688 31.699219 C 48.445312 31.644531 48.484375 31.609375 48.4375 31.441406 C 48.394531 31.269531 48.429688 31.226562 48.636719 31.179688 C 49.128906 31.0625 49.371094 30.921875 49.371094 30.761719 C 49.371094 30.609375 49.300781 30.589844 48.824219 30.589844 C 48.265625 30.589844 47.890625 30.464844 47.980469 30.3125 C 48.015625 30.269531 48.132812 30.234375 48.257812 30.234375 C 48.671875 30.234375 48.484375 29.867188 48.007812 29.75 C 47.863281 29.722656 47.753906 29.660156 47.753906 29.617188 C 47.753906 29.578125 47.863281 29.488281 48.007812 29.4375 L 48.25 29.320312 L 48.023438 29.167969 C 47.550781 28.855469 47.371094 28.648438 47.421875 28.507812 C 47.460938 28.417969 47.578125 28.355469 47.710938 28.355469 C 47.988281 28.355469 48.023438 28.050781 47.753906 27.90625 C 47.667969 27.851562 47.558594 27.675781 47.523438 27.511719 C 47.441406 27.058594 47.21875 27.011719 47.21875 27.460938 C 47.21875 27.746094 47.171875 27.84375 46.949219 27.996094 L 46.679688 28.191406 L 46.859375 28.417969 C 47.101562 28.722656 47.082031 28.945312 46.8125 29.125 C 46.535156 29.300781 46.527344 29.453125 46.785156 29.625 C 47 29.765625 46.9375 29.964844 46.667969 29.964844 C 46.5625 29.964844 46.464844 30.054688 46.410156 30.195312 C 46.328125 30.402344 46.285156 30.421875 45.996094 30.375 C 45.554688 30.285156 45.332031 30.375 45.332031 30.636719 C 45.332031 30.921875 45.546875 31.019531 46.3125 31.089844 C 46.984375 31.152344 47.082031 31.253906 46.796875 31.53125 C 46.714844 31.617188 46.472656 31.761719 46.246094 31.851562 C 45.90625 32.003906 45.863281 32.046875 45.890625 32.261719 C 45.914062 32.488281 45.871094 32.53125 45.476562 32.65625 C 45.234375 32.738281 44.957031 32.78125 44.847656 32.746094 C 44.6875 32.703125 44.703125 32.691406 44.9375 32.664062 C 45.125 32.648438 45.261719 32.566406 45.332031 32.414062 C 45.441406 32.226562 45.429688 32.183594 45.277344 32.074219 C 45.125 31.957031 45.125 31.941406 45.261719 31.886719 C 45.464844 31.808594 45.53125 31.484375 45.351562 31.429688 C 45.269531 31.402344 45.125 31.339844 45.042969 31.296875 C 44.957031 31.253906 44.828125 31.214844 44.757812 31.214844 C 44.621094 31.214844 44.164062 30.886719 44.164062 30.777344 C 44.164062 30.671875 44.882812 30.234375 45.070312 30.234375 C 45.324219 30.234375 45.414062 29.792969 45.199219 29.632812 C 45.097656 29.570312 44.964844 29.515625 44.875 29.515625 C 44.792969 29.515625 44.621094 29.4375 44.496094 29.339844 C 44.371094 29.238281 44.199219 29.160156 44.101562 29.160156 C 43.816406 29.160156 43.6875 29.023438 43.769531 28.792969 C 43.804688 28.675781 43.84375 28.542969 43.851562 28.488281 C 43.851562 28.445312 44.023438 28.371094 44.238281 28.335938 C 44.445312 28.300781 44.660156 28.246094 44.710938 28.21875 C 44.917969 28.085938 44.722656 27.871094 44.210938 27.691406 C 43.652344 27.496094 43.464844 27.246094 43.753906 27.085938 C 43.949219 26.976562 43.933594 26.71875 43.714844 26.582031 C 43.609375 26.519531 43.535156 26.378906 43.535156 26.234375 C 43.535156 26.109375 43.472656 25.929688 43.394531 25.839844 C 43.257812 25.6875 43.242188 25.6875 43.070312 25.839844 C 42.953125 25.957031 42.917969 26.074219 42.953125 26.214844 C 42.980469 26.351562 42.933594 26.519531 42.84375 26.664062 C 42.550781 27.109375 41.75 27.90625 41.605469 27.90625 C 41.5 27.90625 41.472656 27.980469 41.488281 28.148438 C 41.507812 28.355469 41.5625 28.40625 41.8125 28.425781 C 42.082031 28.453125 42.101562 28.46875 42.101562 28.820312 C 42.101562 29.125 42.074219 29.167969 41.949219 29.113281 C 41.769531 29.050781 41.742188 29.042969 41.578125 29.0625 C 41.488281 29.070312 41.488281 29.105469 41.578125 29.25 C 41.734375 29.480469 41.605469 29.570312 41.347656 29.425781 C 41.222656 29.363281 41.058594 29.339844 40.976562 29.375 C 40.835938 29.425781 40.835938 29.445312 40.96875 29.652344 C 41.050781 29.765625 41.113281 29.894531 41.113281 29.917969 C 41.113281 29.980469 40.65625 29.917969 40.457031 29.839844 C 40.378906 29.792969 40.199219 29.785156 40.082031 29.820312 C 39.957031 29.847656 39.757812 29.902344 39.632812 29.929688 C 39.335938 30 39.328125 29.765625 39.613281 29.5625 L 39.8125 29.417969 L 39.585938 29.25 C 39.433594 29.132812 39.390625 29.050781 39.453125 28.988281 C 39.558594 28.882812 40.683594 28.835938 40.851562 28.9375 C 40.925781 28.980469 40.90625 28.925781 40.808594 28.820312 C 40.71875 28.710938 40.566406 28.605469 40.476562 28.578125 C 40.199219 28.488281 40.277344 28.382812 40.664062 28.320312 C 41.203125 28.238281 41.132812 28.050781 40.441406 27.753906 C 39.847656 27.503906 39.828125 27.351562 40.367188 27.148438 C 40.601562 27.058594 40.824219 26.941406 40.863281 26.886719 C 40.960938 26.746094 40.664062 26.671875 40.304688 26.761719 C 39.957031 26.84375 39.074219 26.671875 39.121094 26.519531 C 39.128906 26.46875 39.390625 26.421875 39.703125 26.414062 C 40.007812 26.402344 40.324219 26.394531 40.394531 26.394531 C 40.476562 26.386719 40.691406 26.179688 40.890625 25.9375 C 41.085938 25.6875 41.335938 25.464844 41.4375 25.4375 C 41.644531 25.382812 42.011719 25.019531 42.011719 24.867188 C 42.011719 24.742188 41.742188 24.757812 41.15625 24.910156 C 40.59375 25.054688 40.0625 25.019531 39.585938 24.785156 C 39.253906 24.632812 39.101562 24.328125 39.355469 24.328125 C 39.433594 24.328125 39.800781 24.203125 40.171875 24.050781 C 40.824219 23.773438 40.960938 23.613281 40.53125 23.613281 C 40.070312 23.613281 40.1875 23.320312 40.710938 23.140625 C 41.148438 22.988281 41.246094 22.71875 40.871094 22.71875 C 40.421875 22.71875 40.351562 22.59375 40.621094 22.324219 C 40.753906 22.191406 40.84375 22.066406 40.816406 22.039062 C 40.800781 22.019531 40.59375 22.085938 40.359375 22.183594 C 39.785156 22.425781 39.535156 22.414062 39.355469 22.128906 C 39.136719 21.808594 39.289062 21.679688 39.710938 21.832031 C 39.945312 21.921875 40.0625 21.921875 40.132812 21.851562 C 40.277344 21.707031 40.160156 21.574219 39.828125 21.484375 C 39.632812 21.429688 39.542969 21.359375 39.542969 21.234375 C 39.542969 21.0625 39.585938 21.046875 40.242188 21.027344 C 40.699219 21.019531 40.65625 20.886719 40.152344 20.75 L 39.722656 20.644531 L 39.917969 20.484375 L 40.125 20.320312 L 39.738281 20 C 39.40625 19.714844 39.378906 19.667969 39.523438 19.589844 C 39.722656 19.464844 39.722656 19.320312 39.515625 19.320312 C 39.273438 19.320312 38.957031 19.0625 38.957031 18.871094 C 38.957031 18.773438 39.039062 18.648438 39.136719 18.585938 C 39.34375 18.453125 39.371094 18.308594 39.191406 18.167969 C 39.128906 18.113281 39.046875 17.941406 39.011719 17.789062 C 38.96875 17.550781 38.941406 17.523438 38.824219 17.621094 C 38.742188 17.683594 38.707031 17.800781 38.734375 17.871094 C 38.769531 17.960938 38.6875 18.085938 38.546875 18.203125 L 38.304688 18.390625 L 38.546875 18.632812 C 38.832031 18.917969 38.816406 19.050781 38.484375 19.210938 C 38.214844 19.347656 38.242188 19.472656 38.5625 19.589844 C 38.933594 19.730469 38.789062 20.214844 38.382812 20.214844 C 38.277344 20.214844 38.113281 20.277344 38.015625 20.359375 C 37.898438 20.4375 37.746094 20.464844 37.585938 20.429688 C 37.40625 20.394531 37.28125 20.421875 37.15625 20.535156 C 36.75 20.894531 37.109375 21.128906 38.023438 21.089844 C 38.714844 21.054688 38.886719 21.171875 38.6875 21.53125 C 38.617188 21.65625 38.355469 21.894531 38.105469 22.066406 C 37.863281 22.226562 37.558594 22.441406 37.449219 22.539062 C 37.332031 22.636719 37.136719 22.71875 37.011719 22.71875 C 36.820312 22.71875 36.804688 22.738281 36.894531 22.851562 C 37.054688 23.042969 36.921875 23.167969 36.570312 23.167969 C 36.363281 23.167969 36.265625 23.203125 36.285156 23.273438 C 36.363281 23.507812 36.785156 23.703125 37.359375 23.785156 C 38.035156 23.871094 38.152344 23.925781 38.152344 24.105469 C 38.152344 24.25 37.503906 24.597656 37.226562 24.597656 C 36.929688 24.597656 36.796875 24.722656 36.820312 24.964844 C 36.839844 25.125 36.804688 25.1875 36.652344 25.207031 C 36.535156 25.222656 36.445312 25.269531 36.445312 25.3125 C 36.445312 25.457031 36.667969 25.527344 37.179688 25.546875 C 37.46875 25.546875 37.710938 25.589844 37.710938 25.636719 C 37.730469 25.804688 37.28125 26.039062 36.820312 26.089844 C 36.5625 26.117188 36.328125 26.171875 36.3125 26.207031 C 36.238281 26.324219 36.535156 26.824219 36.714844 26.878906 C 36.8125 26.914062 36.894531 26.976562 36.894531 27.019531 C 36.894531 27.136719 36.5625 27.121094 36.210938 26.996094 C 35.960938 26.90625 35.890625 26.914062 35.746094 27.039062 C 35.65625 27.121094 35.554688 27.164062 35.53125 27.136719 C 35.503906 27.109375 35.339844 27.074219 35.179688 27.066406 C 34.875 27.03125 34.109375 26.429688 34.109375 26.214844 C 34.109375 26.082031 34.175781 26.089844 34.675781 26.269531 C 35.277344 26.484375 35.402344 26.324219 34.929688 25.949219 C 34.722656 25.789062 34.558594 25.617188 34.558594 25.582031 C 34.558594 25.535156 34.800781 25.492188 35.097656 25.472656 C 35.621094 25.445312 35.878906 25.296875 35.503906 25.242188 C 35.402344 25.222656 35.277344 25.125 35.234375 25.019531 C 35.160156 24.867188 35.054688 24.8125 34.785156 24.792969 C 34.585938 24.785156 34.371094 24.75 34.300781 24.730469 C 34.066406 24.640625 34.371094 24.4375 34.828125 24.375 C 35.324219 24.300781 35.683594 24.105469 35.457031 24.023438 C 35.386719 24 35.019531 23.972656 34.640625 23.953125 C 34.226562 23.9375 33.894531 23.871094 33.804688 23.800781 C 33.582031 23.613281 33.777344 23.523438 34.453125 23.523438 C 35.082031 23.523438 35.546875 23.328125 35.546875 23.058594 C 35.546875 22.960938 35.726562 22.816406 36.066406 22.648438 C 36.445312 22.460938 36.589844 22.34375 36.605469 22.183594 C 36.644531 21.996094 36.617188 21.984375 36.292969 22.039062 C 35.683594 22.148438 34.496094 22.210938 34.265625 22.148438 C 34.003906 22.085938 33.664062 21.761719 33.664062 21.582031 C 33.664062 21.519531 33.769531 21.441406 33.914062 21.414062 C 34.199219 21.339844 34.703125 21.0625 34.992188 20.804688 C 35.109375 20.707031 35.324219 20.582031 35.484375 20.527344 C 35.636719 20.484375 35.78125 20.367188 35.800781 20.285156 C 35.824219 20.160156 35.761719 20.144531 35.394531 20.1875 C 35.042969 20.222656 34.910156 20.195312 34.738281 20.054688 L 34.515625 19.875 L 34.820312 19.792969 C 35.214844 19.695312 35.277344 19.515625 34.945312 19.453125 C 34.378906 19.339844 34.246094 19.265625 34.21875 19.070312 C 34.183594 18.855469 34.300781 18.820312 34.570312 18.960938 C 34.667969 19.015625 34.785156 19.035156 34.828125 19.007812 C 34.964844 18.925781 34.820312 18.683594 34.585938 18.597656 C 34.226562 18.460938 34.355469 18.210938 34.8125 18.148438 C 35.179688 18.105469 35.546875 17.863281 35.441406 17.746094 C 35.402344 17.71875 35.304688 17.738281 35.207031 17.789062 C 35.097656 17.84375 34.875 17.890625 34.703125 17.890625 C 34.34375 17.890625 34.28125 17.738281 34.523438 17.496094 C 34.703125 17.316406 34.621094 17.183594 34.355469 17.234375 C 34.226562 17.261719 34.09375 17.21875 34.023438 17.128906 C 33.914062 16.996094 33.914062 16.957031 34.066406 16.84375 C 34.238281 16.71875 34.238281 16.707031 33.96875 16.476562 C 33.652344 16.214844 33.457031 15.886719 33.546875 15.796875 C 33.574219 15.769531 33.714844 15.742188 33.859375 15.742188 C 34.136719 15.742188 34.175781 15.609375 33.976562 15.359375 C 33.914062 15.257812 33.824219 15.035156 33.796875 14.839844 C 33.761719 14.652344 33.707031 14.472656 33.671875 14.453125 C 33.636719 14.425781 33.535156 14.617188 33.445312 14.875 Z M 31.957031 25.851562 C 31.957031 25.894531 31.921875 25.9375 31.867188 25.9375 C 31.820312 25.9375 31.777344 25.894531 31.777344 25.851562 C 31.777344 25.796875 31.820312 25.761719 31.867188 25.761719 C 31.921875 25.761719 31.957031 25.796875 31.957031 25.851562 Z M 34.535156 27.019531 C 34.378906 27.109375 34.085938 27.03125 34.15625 26.921875 C 34.175781 26.886719 34.300781 26.878906 34.433594 26.90625 C 34.621094 26.941406 34.640625 26.96875 34.535156 27.019531 Z M 36.257812 27.675781 C 36.605469 28.03125 36.839844 28.183594 37.15625 28.265625 C 37.378906 28.328125 37.628906 28.390625 37.71875 28.40625 C 37.800781 28.433594 37.882812 28.507812 37.910156 28.570312 C 37.988281 28.773438 36.597656 28.703125 36.335938 28.480469 C 36.023438 28.21875 35.816406 27.96875 35.816406 27.828125 C 35.816406 27.753906 35.753906 27.65625 35.671875 27.601562 C 35.546875 27.503906 35.574219 27.191406 35.71875 27.191406 C 35.753906 27.191406 35.996094 27.40625 36.257812 27.675781 Z M 24.828125 30.152344 C 24.867188 30.207031 25.007812 30.222656 25.1875 30.1875 C 25.359375 30.160156 25.492188 30.171875 25.492188 30.214844 C 25.492188 30.257812 25.628906 30.367188 25.789062 30.445312 C 25.941406 30.519531 26.015625 30.589844 25.941406 30.589844 C 25.863281 30.589844 25.71875 30.527344 25.601562 30.457031 C 25.464844 30.359375 25.359375 30.339844 25.25 30.402344 C 25.0625 30.492188 24.507812 30.304688 24.507812 30.144531 C 24.507812 30.027344 24.75 30.027344 24.828125 30.152344 Z M 41.832031 30.195312 C 42.15625 30.339844 42.164062 30.359375 42.144531 30.761719 C 42.117188 31.128906 42.082031 31.179688 41.832031 31.289062 C 41.5625 31.394531 41.554688 31.394531 41.605469 31.214844 C 41.644531 31.109375 41.617188 30.964844 41.554688 30.894531 C 41.5 30.824219 41.472656 30.742188 41.507812 30.707031 C 41.535156 30.679688 41.5 30.582031 41.417969 30.492188 C 41.285156 30.339844 41.292969 30.054688 41.4375 30.054688 C 41.472656 30.054688 41.652344 30.117188 41.832031 30.195312 Z M 24.238281 30.589844 C 24.238281 30.636719 24.175781 30.679688 24.101562 30.679688 C 24.03125 30.679688 23.96875 30.636719 23.96875 30.589844 C 23.96875 30.535156 24.03125 30.5 24.101562 30.5 C 24.175781 30.5 24.238281 30.535156 24.238281 30.589844 Z M 41.652344 31.753906 C 41.652344 31.789062 41.742188 31.859375 41.859375 31.90625 C 42.039062 31.996094 42.039062 32.011719 41.894531 32.066406 C 41.578125 32.191406 41.03125 31.644531 41.300781 31.476562 C 41.417969 31.402344 41.652344 31.59375 41.652344 31.753906 Z M 44.390625 32.738281 C 44.417969 32.78125 44.363281 32.828125 44.265625 32.828125 C 44.164062 32.828125 44.058594 32.78125 44.03125 32.738281 C 44.003906 32.683594 44.058594 32.648438 44.15625 32.648438 C 44.253906 32.648438 44.363281 32.683594 44.390625 32.738281 Z M 23.25 33.148438 C 23.25 33.34375 23.214844 33.371094 23.007812 33.34375 C 22.828125 33.328125 22.746094 33.265625 22.730469 33.113281 C 22.703125 32.941406 22.738281 32.914062 22.972656 32.914062 C 23.214844 32.914062 23.25 32.953125 23.25 33.148438 Z M 49.980469 33.425781 C 50 33.507812 49.902344 33.542969 49.648438 33.542969 C 49.289062 33.542969 49.09375 33.417969 49.300781 33.328125 C 49.496094 33.246094 49.9375 33.308594 49.980469 33.425781 Z M 32.398438 34.320312 L 32.945312 34.742188 L 32.945312 35.339844 C 32.945312 35.714844 32.898438 35.964844 32.835938 36.019531 C 32.773438 36.0625 32.449219 36.109375 32.128906 36.128906 C 31.660156 36.144531 31.515625 36.117188 31.480469 36.011719 C 31.417969 35.859375 31.488281 34.300781 31.5625 34.050781 C 31.632812 33.808594 31.796875 33.863281 32.398438 34.320312 Z M 30.933594 35.527344 C 30.90625 36.046875 30.890625 36.074219 30.609375 36.191406 C 30.269531 36.332031 29.597656 36.359375 29.640625 36.226562 C 29.695312 36.0625 30.835938 34.902344 30.898438 34.9375 C 30.933594 34.964844 30.941406 35.222656 30.933594 35.527344 Z M 33.957031 35.519531 C 34.191406 35.671875 34.355469 35.832031 34.328125 35.875 C 34.300781 35.921875 34.085938 35.957031 33.832031 35.957031 L 33.394531 35.957031 L 33.394531 35.597656 C 33.394531 35.402344 33.429688 35.242188 33.464844 35.242188 C 33.511719 35.242188 33.734375 35.367188 33.957031 35.519531 Z M 24.328125 35.777344 C 24.148438 35.894531 24.03125 35.894531 24.101562 35.777344 C 24.128906 35.722656 24.226562 35.6875 24.308594 35.6875 C 24.445312 35.6875 24.445312 35.707031 24.328125 35.777344 Z M 34.992188 36.421875 C 35.144531 36.574219 35.144531 39.363281 34.992188 39.515625 C 34.910156 39.597656 34.910156 39.703125 34.992188 39.957031 C 35.042969 40.144531 35.117188 40.804688 35.144531 41.429688 C 35.179688 42.386719 35.171875 42.585938 35.042969 42.703125 C 34.972656 42.78125 34.839844 42.84375 34.757812 42.851562 C 34.675781 42.851562 34.433594 42.871094 34.226562 42.898438 C 33.914062 42.941406 33.851562 42.925781 33.796875 42.773438 C 33.769531 42.664062 33.636719 42.566406 33.5 42.53125 L 33.257812 42.488281 L 33.285156 41.332031 C 33.304688 40.472656 33.347656 40.152344 33.4375 40.070312 C 33.511719 40.007812 33.824219 39.945312 34.128906 39.917969 C 34.445312 39.894531 34.710938 39.855469 34.730469 39.839844 C 34.839844 39.730469 34.570312 39.667969 34.085938 39.6875 C 33.789062 39.703125 33.492188 39.667969 33.421875 39.617188 C 33.292969 39.507812 33.277344 38.148438 33.382812 37.03125 L 33.4375 36.449219 L 34.023438 36.394531 C 34.34375 36.367188 34.667969 36.339844 34.75 36.332031 C 34.820312 36.324219 34.929688 36.359375 34.992188 36.421875 Z M 32.882812 36.628906 C 32.988281 36.726562 33.015625 37.039062 33.023438 38.066406 C 33.035156 38.792969 33.0625 39.410156 33.078125 39.445312 C 33.179688 39.597656 32.855469 39.695312 32.179688 39.730469 L 31.464844 39.757812 L 31.4375 38.417969 C 31.410156 36.796875 31.425781 36.671875 31.757812 36.664062 C 31.894531 36.664062 32.082031 36.628906 32.179688 36.582031 C 32.460938 36.46875 32.738281 36.484375 32.882812 36.628906 Z M 30.976562 37.628906 C 30.976562 38.113281 30.996094 38.648438 31.015625 38.820312 C 31.042969 39.113281 30.941406 39.765625 30.851562 39.855469 C 30.835938 39.882812 30.699219 39.847656 30.574219 39.785156 C 30.386719 39.703125 30.289062 39.703125 30.152344 39.785156 C 29.882812 39.957031 29.550781 39.917969 29.433594 39.703125 C 29.355469 39.542969 29.363281 39.488281 29.480469 39.425781 C 29.640625 39.339844 29.675781 38.863281 29.523438 38.773438 C 29.460938 38.730469 29.445312 38.40625 29.460938 37.863281 C 29.507812 36.832031 29.570312 36.761719 30.402344 36.761719 L 30.96875 36.761719 Z M 21.15625 39.578125 C 21.183594 39.660156 21.183594 39.75 21.148438 39.777344 C 21.085938 39.839844 20.824219 39.632812 20.824219 39.527344 C 20.824219 39.390625 21.09375 39.4375 21.15625 39.578125 Z M 21.183594 40.277344 C 21.183594 40.679688 21.078125 40.796875 20.671875 40.851562 C 20.269531 40.902344 20.152344 40.804688 20.234375 40.484375 C 20.277344 40.296875 20.960938 39.882812 21.121094 39.957031 C 21.15625 39.980469 21.183594 40.125 21.183594 40.277344 Z M 22.039062 39.972656 C 22.066406 40.019531 22.046875 40.089844 21.992188 40.117188 C 21.859375 40.195312 21.605469 40.089844 21.679688 39.980469 C 21.75 39.867188 21.964844 39.867188 22.039062 39.972656 Z M 33.015625 40.179688 C 33.132812 40.296875 33.167969 42.628906 33.050781 42.816406 C 32.980469 42.933594 31.589844 43.03125 31.417969 42.933594 C 31.273438 42.84375 31.363281 41.277344 31.515625 41.082031 C 31.597656 40.992188 31.589844 40.886719 31.453125 40.652344 C 31.363281 40.484375 31.320312 40.320312 31.355469 40.285156 C 31.535156 40.105469 32.855469 40.019531 33.015625 40.179688 Z M 30.996094 40.410156 C 31.023438 40.492188 31.042969 40.964844 31.058594 41.457031 C 31.078125 42.636719 31.085938 42.78125 31.066406 42.898438 C 31.058594 43.023438 29.8125 43.15625 29.535156 43.066406 C 29.363281 43.015625 29.355469 42.941406 29.355469 41.769531 L 29.355469 40.527344 L 29.597656 40.394531 C 29.730469 40.332031 30.089844 40.269531 30.402344 40.269531 C 30.851562 40.269531 30.96875 40.296875 30.996094 40.410156 Z M 30.996094 40.410156 "/>
<path style=" stroke:none;fill-rule:nonzero;fill:rgb(0%,0%,0%);fill-opacity:1;" d="M 32.289062 41.644531 C 32.253906 41.679688 32.226562 41.789062 32.226562 41.878906 C 32.226562 41.996094 32.289062 42.039062 32.460938 42.039062 C 32.648438 42.039062 32.683594 42.003906 32.65625 41.84375 C 32.628906 41.636719 32.414062 41.53125 32.289062 41.644531 Z M 32.289062 41.644531 "/>
<path style=" stroke:none;fill-rule:nonzero;fill:rgb(0%,0%,0%);fill-opacity:1;" d="M 27.378906 23.210938 C 27.378906 23.335938 27.421875 23.433594 27.46875 23.433594 C 27.523438 23.433594 27.558594 23.335938 27.558594 23.210938 C 27.558594 23.085938 27.523438 22.988281 27.46875 22.988281 C 27.421875 22.988281 27.378906 23.085938 27.378906 23.210938 Z M 27.378906 23.210938 "/>
<path style=" stroke:none;fill-rule:nonzero;fill:rgb(0%,0%,0%);fill-opacity:1;" d="M 20.953125 25.527344 C 20.890625 25.699219 20.976562 25.851562 21.148438 25.851562 C 21.238281 25.851562 21.273438 25.777344 21.257812 25.652344 C 21.222656 25.421875 21.023438 25.332031 20.953125 25.527344 Z M 20.953125 25.527344 "/>
<path style=" stroke:none;fill-rule:nonzero;fill:rgb(0%,0%,0%);fill-opacity:1;" d="M 22.324219 25.554688 C 22.226562 25.644531 22.441406 25.839844 22.585938 25.789062 C 22.765625 25.714844 22.738281 25.492188 22.550781 25.492188 C 22.460938 25.492188 22.351562 25.519531 22.324219 25.554688 Z M 22.324219 25.554688 "/>
<path style=" stroke:none;fill-rule:nonzero;fill:rgb(0%,0%,0%);fill-opacity:1;" d="M 19.597656 25.8125 C 19.523438 25.992188 19.75 26.136719 19.902344 26.011719 C 19.992188 25.9375 19.992188 25.886719 19.917969 25.796875 C 19.785156 25.636719 19.667969 25.636719 19.597656 25.8125 Z M 19.597656 25.8125 "/>
<path style=" stroke:none;fill-rule:nonzero;fill:rgb(0%,0%,0%);fill-opacity:1;" d="M 23.761719 25.886719 C 23.699219 26.039062 23.921875 26.242188 24.058594 26.164062 C 24.191406 26.082031 24.164062 25.875 24.003906 25.8125 C 23.816406 25.742188 23.816406 25.742188 23.761719 25.886719 Z M 23.761719 25.886719 "/>
<path style=" stroke:none;fill-rule:nonzero;fill:rgb(0%,0%,0%);fill-opacity:1;" d="M 18.457031 26.089844 C 18.429688 26.128906 18.402344 26.226562 18.402344 26.316406 C 18.402344 26.53125 18.699219 26.503906 18.742188 26.289062 C 18.769531 26.136719 18.554688 25.992188 18.457031 26.089844 Z M 18.457031 26.089844 "/>
<path style=" stroke:none;fill-rule:nonzero;fill:rgb(0%,0%,0%);fill-opacity:1;" d="M 24.820312 26.566406 C 24.785156 26.628906 24.792969 26.707031 24.847656 26.761719 C 24.972656 26.886719 25.25 26.78125 25.207031 26.628906 C 25.152344 26.484375 24.902344 26.441406 24.820312 26.566406 Z M 24.820312 26.566406 "/>
<path style=" stroke:none;fill-rule:nonzero;fill:rgb(0%,0%,0%);fill-opacity:1;" d="M 17.324219 27.003906 C 17.324219 27.191406 17.246094 27.324219 16.992188 27.511719 C 16.804688 27.65625 16.425781 27.996094 16.15625 28.273438 C 14.675781 29.792969 14.03125 30.472656 13.753906 30.804688 C 13.582031 31.011719 13.292969 31.351562 13.105469 31.574219 C 12.433594 32.363281 11.605469 33.417969 11.085938 34.167969 C 10.789062 34.589844 10.402344 35.125 10.214844 35.375 C 10.027344 35.617188 9.875 35.851562 9.875 35.886719 C 9.875 35.929688 9.722656 36.164062 9.542969 36.421875 C 9.355469 36.671875 9.085938 37.074219 8.933594 37.316406 C 8.625 37.800781 7.628906 39.257812 7.496094 39.417969 C 7.449219 39.472656 7.308594 39.667969 7.179688 39.847656 C 7.054688 40.027344 6.859375 40.304688 6.734375 40.464844 C 6.605469 40.636719 6.445312 40.859375 6.375 40.964844 C 6.300781 41.082031 6.15625 41.277344 6.050781 41.402344 C 5.941406 41.53125 5.582031 42.03125 5.242188 42.523438 C 4.902344 43.003906 4.46875 43.613281 4.289062 43.863281 C 4.101562 44.113281 3.90625 44.402344 3.851562 44.5 L 3.742188 44.679688 L 3.957031 44.5 C 4.308594 44.203125 4.957031 43.550781 5.519531 42.898438 C 5.816406 42.558594 6.222656 42.109375 6.417969 41.914062 C 7.269531 41.027344 8.484375 39.570312 9.191406 38.550781 C 9.371094 38.28125 9.667969 37.878906 9.839844 37.65625 C 10 37.433594 10.214844 37.109375 10.3125 36.941406 C 10.574219 36.476562 11.757812 35.082031 12.835938 33.980469 C 13.832031 32.960938 14.445312 32.273438 15.351562 31.152344 C 15.394531 31.101562 15.609375 30.777344 15.835938 30.4375 C 16.796875 28.960938 17.316406 28.578125 18.996094 28.078125 C 19.378906 27.960938 19.875 27.980469 20 28.105469 C 20.0625 28.167969 20.109375 28.183594 20.109375 28.148438 C 20.109375 28.121094 20.214844 28.128906 20.351562 28.183594 C 20.582031 28.273438 20.582031 28.265625 20.441406 28.105469 C 20.351562 28.015625 20.117188 27.878906 19.902344 27.816406 C 19.695312 27.753906 19.507812 27.675781 19.480469 27.636719 C 19.300781 27.371094 17.953125 27.058594 17.835938 27.253906 C 17.820312 27.296875 17.808594 27.28125 17.820312 27.234375 C 17.863281 27.03125 17.683594 26.746094 17.503906 26.746094 C 17.371094 26.746094 17.324219 26.808594 17.324219 27.003906 Z M 17.59375 27.550781 C 17.59375 27.59375 17.550781 27.636719 17.496094 27.636719 C 17.449219 27.636719 17.433594 27.59375 17.460938 27.550781 C 17.488281 27.496094 17.53125 27.460938 17.558594 27.460938 C 17.578125 27.460938 17.59375 27.496094 17.59375 27.550781 Z M 17.59375 27.550781 "/>
<path style=" stroke:none;fill-rule:nonzero;fill:rgb(0%,0%,0%);fill-opacity:1;" d="M 16.175781 27.433594 C 16.210938 27.628906 16.5625 27.65625 16.5625 27.460938 C 16.5625 27.386719 16.464844 27.316406 16.355469 27.296875 C 16.183594 27.273438 16.148438 27.296875 16.175781 27.433594 Z M 16.175781 27.433594 "/>
<path style=" stroke:none;fill-rule:nonzero;fill:rgb(0%,0%,0%);fill-opacity:1;" d="M 51.554688 34.277344 C 51.5 34.339844 51.058594 35.1875 50.574219 36.171875 C 49.910156 37.503906 49.640625 37.960938 49.480469 38.023438 C 49.363281 38.066406 48.429688 38.105469 47.40625 38.105469 C 46.382812 38.105469 45.511719 38.128906 45.484375 38.15625 C 45.402344 38.238281 45.773438 38.730469 45.90625 38.730469 C 45.96875 38.730469 46.09375 38.820312 46.195312 38.917969 C 46.285156 39.023438 46.453125 39.140625 46.570312 39.1875 C 46.6875 39.230469 46.769531 39.339844 46.769531 39.445312 C 46.769531 39.570312 46.832031 39.625 46.976562 39.625 C 47.089844 39.625 47.226562 39.667969 47.28125 39.722656 C 47.332031 39.777344 47.539062 39.855469 47.730469 39.894531 C 47.917969 39.9375 48.292969 40.035156 48.5625 40.117188 C 48.832031 40.195312 49.335938 40.320312 49.6875 40.394531 C 50.027344 40.472656 50.789062 40.671875 51.375 40.839844 C 52.53125 41.171875 52.65625 41.191406 52.738281 41.054688 C 52.835938 40.894531 52.855469 40.035156 52.753906 39.917969 C 52.628906 39.75 52.882812 39.6875 53.492188 39.730469 L 54.023438 39.765625 L 54.128906 39.4375 C 54.21875 39.160156 54.21875 39.0625 54.109375 38.855469 C 53.796875 38.253906 52.59375 35.839844 52.207031 35.035156 C 51.976562 34.5625 51.75 34.167969 51.714844 34.167969 C 51.667969 34.167969 51.597656 34.222656 51.554688 34.277344 Z M 51.382812 37.980469 C 51.796875 38.003906 51.902344 38.191406 51.929688 38.9375 C 51.949219 39.300781 51.929688 39.640625 51.894531 39.695312 C 51.804688 39.839844 51.328125 39.714844 51.285156 39.527344 C 51.246094 39.410156 51.175781 39.382812 50.953125 39.417969 C 50.746094 39.453125 50.628906 39.417969 50.503906 39.277344 C 50.351562 39.105469 50.339844 39.042969 50.429688 38.785156 C 50.492188 38.621094 50.539062 38.425781 50.539062 38.34375 C 50.539062 38.128906 50.878906 37.816406 51.015625 37.898438 C 51.078125 37.933594 51.238281 37.96875 51.382812 37.980469 Z M 51.382812 37.980469 "/>
<path style=" stroke:none;fill-rule:nonzero;fill:rgb(0%,0%,0%);fill-opacity:1;" d="M 51.015625 38.703125 C 51.09375 38.785156 51.183594 38.828125 51.222656 38.800781 C 51.3125 38.710938 51.167969 38.550781 51.003906 38.550781 C 50.871094 38.550781 50.871094 38.558594 51.015625 38.703125 Z M 51.015625 38.703125 "/>
<path style=" stroke:none;fill-rule:nonzero;fill:rgb(0%,0%,0%);fill-opacity:1;" d="M 52.550781 35.035156 C 52.578125 35.257812 52.667969 35.519531 52.738281 35.597656 C 52.808594 35.679688 52.871094 35.796875 52.871094 35.851562 C 52.871094 35.964844 53.222656 36.171875 53.304688 36.101562 C 53.332031 36.0625 53.304688 35.992188 53.25 35.9375 C 53.1875 35.875 53.140625 35.679688 53.140625 35.492188 C 53.140625 35.117188 52.84375 34.617188 52.621094 34.617188 C 52.511719 34.617188 52.503906 34.703125 52.550781 35.035156 Z M 52.550781 35.035156 "/>
<path style=" stroke:none;fill-rule:nonzero;fill:rgb(0%,0%,0%);fill-opacity:1;" d="M 25.132812 36.136719 C 25.132812 36.179688 25.179688 36.226562 25.222656 36.226562 C 25.277344 36.226562 25.3125 36.179688 25.3125 36.136719 C 25.3125 36.082031 25.277344 36.046875 25.222656 36.046875 C 25.179688 36.046875 25.132812 36.082031 25.132812 36.136719 Z M 25.132812 36.136719 "/>
<path style=" stroke:none;fill-rule:nonzero;fill:rgb(0%,0%,0%);fill-opacity:1;" d="M 53.382812 36.636719 C 53.265625 36.753906 53.320312 36.851562 53.511719 36.851562 C 53.609375 36.851562 53.679688 36.808594 53.664062 36.746094 C 53.617188 36.617188 53.464844 36.554688 53.382812 36.636719 Z M 53.382812 36.636719 "/>
<path style=" stroke:none;fill-rule:nonzero;fill:rgb(0%,0%,0%);fill-opacity:1;" d="M 59.15625 40.042969 C 59.15625 40.160156 59.199219 40.25 59.246094 40.25 C 59.363281 40.25 59.363281 40.152344 59.246094 39.980469 C 59.175781 39.875 59.15625 39.882812 59.15625 40.042969 Z M 59.15625 40.042969 "/>
<path style=" stroke:none;fill-rule:nonzero;fill:rgb(0%,0%,0%);fill-opacity:1;" d="M 20.332031 43.480469 C 20.222656 43.648438 20.378906 43.683594 20.53125 43.53125 C 20.671875 43.390625 20.671875 43.382812 20.539062 43.382812 C 20.457031 43.382812 20.359375 43.425781 20.332031 43.480469 Z M 20.332031 43.480469 "/>
<path style=" stroke:none;fill-rule:nonzero;fill:rgb(0%,0%,0%);fill-opacity:1;" d="M 18.582031 43.820312 C 18.582031 43.882812 18.679688 44.015625 18.804688 44.132812 C 19.199219 44.5 19.039062 44.714844 18.394531 44.722656 C 18.070312 44.722656 18.035156 44.792969 18.1875 45.105469 C 18.265625 45.25 18.3125 45.464844 18.285156 45.582031 C 18.257812 45.761719 18.285156 45.796875 18.472656 45.796875 C 18.601562 45.796875 18.769531 45.859375 18.851562 45.929688 C 19.039062 46.101562 19.265625 46.027344 19.328125 45.789062 C 19.355469 45.679688 19.453125 45.617188 19.597656 45.617188 C 19.722656 45.617188 19.855469 45.574219 19.882812 45.527344 C 19.917969 45.472656 19.8125 45.4375 19.621094 45.4375 C 19.453125 45.4375 19.289062 45.402344 19.253906 45.359375 C 19.183594 45.234375 19.453125 45 19.730469 44.9375 C 20.277344 44.828125 20.476562 44.507812 20.070312 44.402344 C 19.945312 44.375 19.839844 44.285156 19.820312 44.210938 C 19.777344 43.988281 18.582031 43.613281 18.582031 43.820312 Z M 18.582031 43.820312 "/>
<path style=" stroke:none;fill-rule:nonzero;fill:rgb(0%,0%,0%);fill-opacity:1;" d="M 6.785156 44.425781 C 6.757812 44.464844 6.734375 44.570312 6.742188 44.667969 C 6.742188 44.777344 6.769531 44.804688 6.796875 44.742188 C 6.8125 44.6875 6.894531 44.632812 6.964844 44.632812 C 7.039062 44.632812 7.089844 44.597656 7.089844 44.554688 C 7.089844 44.453125 6.859375 44.355469 6.785156 44.425781 Z M 6.785156 44.425781 "/>
<path style=" stroke:none;fill-rule:nonzero;fill:rgb(0%,0%,0%);fill-opacity:1;" d="M 5.953125 45.054688 C 5.890625 45.070312 5.835938 45.132812 5.835938 45.1875 C 5.835938 45.242188 5.898438 45.25 5.976562 45.222656 C 6.085938 45.1875 6.113281 45.207031 6.066406 45.304688 C 6.042969 45.382812 6.066406 45.4375 6.15625 45.4375 C 6.246094 45.4375 6.285156 45.382812 6.257812 45.3125 C 6.230469 45.25 6.257812 45.144531 6.3125 45.089844 C 6.382812 45.019531 6.363281 44.992188 6.238281 45 C 6.140625 45 6.003906 45.027344 5.953125 45.054688 Z M 5.953125 45.054688 "/>
<path style=" stroke:none;fill-rule:nonzero;fill:rgb(0%,0%,0%);fill-opacity:1;" d="M 5.574219 45.597656 C 5.574219 45.714844 5.53125 45.777344 5.476562 45.75 C 5.421875 45.714844 5.332031 45.8125 5.269531 45.957031 C 5.214844 46.101562 5.109375 46.199219 5.042969 46.171875 C 4.980469 46.152344 4.597656 46.476562 4.191406 46.886719 C 3.789062 47.296875 3.1875 47.871094 2.855469 48.15625 C 1.886719 49.007812 2.226562 48.847656 3.402344 47.90625 C 4.890625 46.71875 5.476562 46.179688 5.476562 46 C 5.476562 45.9375 5.546875 45.886719 5.644531 45.886719 C 5.734375 45.886719 5.871094 45.8125 5.933594 45.734375 C 6.042969 45.597656 6.042969 45.589844 5.863281 45.636719 C 5.726562 45.671875 5.65625 45.644531 5.628906 45.535156 C 5.601562 45.445312 5.582031 45.464844 5.574219 45.597656 Z M 5.574219 45.597656 "/>
<path style=" stroke:none;fill-rule:nonzero;fill:rgb(0%,0%,0%);fill-opacity:1;" d="M 22.945312 45.636719 C 22.835938 45.964844 22.820312 46.332031 22.890625 46.332031 C 22.980469 46.332031 23.015625 46.152344 22.980469 45.851562 C 22.972656 45.761719 23.015625 45.644531 23.089844 45.609375 C 23.179688 45.546875 23.179688 45.527344 23.089844 45.527344 C 23.023438 45.527344 22.960938 45.582031 22.945312 45.636719 Z M 22.945312 45.636719 "/>
<path style=" stroke:none;fill-rule:nonzero;fill:rgb(0%,0%,0%);fill-opacity:1;" d="M 17.414062 45.886719 C 17.046875 45.929688 17.011719 45.957031 16.957031 46.226562 C 16.921875 46.386719 16.921875 46.53125 16.957031 46.546875 C 17.039062 46.601562 18.132812 45.976562 18.132812 45.886719 C 18.132812 45.839844 18.0625 45.8125 17.980469 45.824219 C 17.890625 45.832031 17.640625 45.859375 17.414062 45.886719 Z M 17.414062 45.886719 "/>
<path style=" stroke:none;fill-rule:nonzero;fill:rgb(0%,0%,0%);fill-opacity:1;" d="M 16.066406 46.128906 C 15.898438 46.179688 15.484375 46.691406 15.609375 46.691406 C 15.664062 46.691406 15.710938 46.65625 15.710938 46.617188 C 15.710938 46.582031 15.800781 46.546875 15.898438 46.539062 C 16.121094 46.519531 16.445312 46.253906 16.375 46.144531 C 16.328125 46.0625 16.292969 46.054688 16.066406 46.128906 Z M 16.066406 46.128906 "/>
<path style=" stroke:none;fill-rule:nonzero;fill:rgb(0%,0%,0%);fill-opacity:1;" d="M 41.132812 46.617188 C 41.15625 46.832031 41.4375 46.941406 41.570312 46.808594 C 41.714844 46.664062 41.554688 46.421875 41.320312 46.421875 C 41.140625 46.421875 41.105469 46.457031 41.132812 46.617188 Z M 41.132812 46.617188 "/>
<path style=" stroke:none;fill-rule:nonzero;fill:rgb(0%,0%,0%);fill-opacity:1;" d="M 50.132812 46.511719 C 50.070312 46.609375 50.234375 46.957031 50.339844 46.957031 C 50.511719 46.957031 50.621094 46.746094 50.53125 46.582031 C 50.441406 46.414062 50.222656 46.367188 50.132812 46.511719 Z M 50.132812 46.511719 "/>
<path style=" stroke:none;fill-rule:nonzero;fill:rgb(0%,0%,0%);fill-opacity:1;" d="M 61.222656 46.949219 C 60.65625 47.503906 60.816406 48.28125 61.554688 48.570312 C 61.660156 48.613281 61.757812 48.738281 61.785156 48.855469 L 61.820312 49.0625 L 61.839844 48.855469 C 61.839844 48.738281 61.929688 48.621094 62.054688 48.570312 C 62.523438 48.371094 62.746094 48.042969 62.746094 47.539062 C 62.746094 46.769531 61.769531 46.394531 61.222656 46.949219 Z M 61.222656 46.949219 "/>
<path style=" stroke:none;fill-rule:nonzero;fill:rgb(0%,0%,0%);fill-opacity:1;" d="M 42.566406 46.976562 C 42.601562 47.253906 43.042969 47.28125 43.042969 47.003906 C 43.042969 46.871094 42.972656 46.816406 42.792969 46.796875 C 42.566406 46.769531 42.539062 46.796875 42.566406 46.976562 Z M 42.566406 46.976562 "/>
<path style=" stroke:none;fill-rule:nonzero;fill:rgb(0%,0%,0%);fill-opacity:1;" d="M 51.796875 46.90625 C 51.625 46.96875 51.230469 47.128906 50.925781 47.253906 C 50.621094 47.386719 50.25 47.496094 50.125 47.496094 C 49.992188 47.496094 49.75 47.539062 49.585938 47.601562 C 49.390625 47.675781 49.121094 47.675781 48.671875 47.621094 C 48.320312 47.566406 48.050781 47.558594 48.078125 47.59375 C 48.097656 47.628906 48.023438 47.753906 47.925781 47.890625 C 47.71875 48.148438 47.246094 48.230469 47.34375 47.988281 C 47.386719 47.863281 47.191406 47.585938 47.046875 47.585938 C 46.894531 47.585938 46.757812 47.851562 46.8125 48.023438 C 46.859375 48.175781 46.8125 48.203125 46.347656 48.253906 C 46.058594 48.28125 45.582031 48.34375 45.277344 48.390625 C 44.433594 48.523438 43.804688 48.507812 43.804688 48.34375 C 43.804688 48.273438 43.851562 48.210938 43.90625 48.210938 C 43.949219 48.210938 43.976562 48.175781 43.949219 48.128906 C 43.921875 48.09375 43.6875 48.03125 43.429688 47.996094 C 43.167969 47.960938 42.910156 47.890625 42.855469 47.84375 C 42.746094 47.765625 42.59375 48.050781 42.53125 48.433594 C 42.511719 48.558594 42.386719 48.648438 42.101562 48.730469 C 40.953125 49.050781 40.976562 49.035156 40.953125 49.382812 C 40.925781 49.75 40.960938 49.792969 41.652344 50.160156 C 43.511719 51.144531 44.046875 51.582031 44.335938 52.34375 C 44.425781 52.59375 44.34375 53.042969 43.84375 55.0625 C 43.671875 55.75 43.714844 56.128906 43.976562 56.214844 C 44.34375 56.332031 44.597656 56.011719 45.035156 54.855469 C 45.222656 54.347656 45.269531 54.078125 45.289062 53.175781 C 45.304688 52.585938 45.359375 51.921875 45.421875 51.699219 C 45.636719 50.902344 45.863281 49.765625 45.871094 49.5 C 45.871094 49.230469 45.878906 49.222656 46.515625 49.125 C 46.875 49.070312 47.179688 49.042969 47.199219 49.050781 C 47.207031 49.070312 47.164062 49.257812 47.089844 49.472656 C 46.921875 50 46.75 50.761719 46.300781 53.066406 C 45.878906 55.195312 45.890625 55.320312 46.390625 55.320312 C 46.632812 55.320312 46.742188 55.222656 47.28125 54.527344 C 47.621094 54.085938 47.933594 53.722656 47.972656 53.722656 C 48.015625 53.710938 48.097656 53.863281 48.152344 54.042969 C 48.203125 54.222656 48.339844 54.480469 48.457031 54.605469 C 48.625 54.804688 48.726562 54.839844 49.085938 54.8125 C 49.417969 54.792969 49.515625 54.75 49.542969 54.605469 C 49.578125 54.402344 50.160156 53.847656 50.339844 53.847656 C 50.429688 53.847656 50.449219 53.898438 50.402344 54.042969 C 50.378906 54.160156 50.324219 54.527344 50.304688 54.875 C 50.269531 55.402344 50.289062 55.546875 50.441406 55.789062 C 50.808594 56.367188 51.464844 56.234375 52.019531 55.464844 L 52.34375 55.019531 L 52.628906 55.1875 C 52.792969 55.285156 53.035156 55.367188 53.167969 55.367188 C 53.445312 55.367188 54.039062 55.097656 54.210938 54.882812 C 54.417969 54.632812 54.488281 54.722656 54.488281 55.234375 C 54.488281 55.742188 54.660156 56.269531 54.910156 56.546875 C 55.007812 56.65625 55.1875 56.707031 55.464844 56.707031 C 55.835938 56.707031 55.90625 56.671875 56.292969 56.261719 C 56.542969 56 56.886719 55.472656 57.109375 55.007812 C 57.324219 54.570312 57.523438 54.210938 57.558594 54.203125 C 57.585938 54.203125 57.640625 54.363281 57.675781 54.5625 C 57.828125 55.445312 58.445312 55.824219 59.183594 55.464844 C 59.722656 55.207031 60.054688 54.882812 60.054688 54.625 C 60.054688 54.5 60.117188 54.355469 60.1875 54.292969 C 60.324219 54.175781 60.378906 53.847656 60.25 53.847656 C 60.214844 53.847656 60.027344 53.988281 59.828125 54.167969 C 59.273438 54.660156 58.804688 54.9375 58.617188 54.875 C 58.429688 54.8125 58.375 54.488281 58.421875 53.765625 C 58.445312 53.390625 58.492188 53.28125 58.625 53.246094 C 58.753906 53.210938 58.796875 53.128906 58.777344 52.960938 C 58.769531 52.828125 58.96875 52.308594 59.226562 51.761719 C 59.800781 50.5625 60.339844 48.925781 60.339844 48.371094 C 60.339844 47.613281 59.9375 47.289062 59.433594 47.648438 C 59.164062 47.828125 58.753906 48.738281 58.257812 50.222656 C 57.691406 51.921875 57.421875 52.613281 57.296875 52.648438 C 57.234375 52.664062 57.117188 52.703125 57.039062 52.726562 C 56.910156 52.765625 56.910156 52.789062 57.039062 52.960938 C 57.164062 53.140625 57.136719 53.210938 56.769531 53.972656 C 56.285156 54.945312 55.65625 55.902344 55.503906 55.902344 C 55.324219 55.902344 55.269531 55.285156 55.367188 54.300781 C 55.457031 53.382812 55.476562 53.320312 56.132812 52.011719 C 57.117188 50.054688 57.585938 48.210938 57.21875 47.691406 C 56.929688 47.28125 56.398438 47.59375 56.003906 48.398438 C 55.644531 49.140625 55.0625 51.089844 54.839844 52.273438 L 54.640625 53.335938 L 54.09375 53.890625 C 53.519531 54.472656 53.167969 54.652344 53.078125 54.410156 C 53.050781 54.339844 53.097656 53.960938 53.179688 53.578125 C 53.339844 52.808594 53.304688 52.59375 53.015625 52.59375 C 52.871094 52.59375 52.765625 52.703125 52.613281 53.015625 C 52.074219 54.140625 51.335938 55.277344 51.148438 55.277344 C 50.933594 55.277344 51.230469 54.078125 51.707031 52.988281 C 51.949219 52.433594 51.902344 52.085938 51.570312 52.003906 C 51.328125 51.941406 51.148438 52.039062 50.636719 52.503906 L 50.332031 52.773438 L 50.117188 52.585938 C 49.929688 52.398438 49.890625 52.398438 49.667969 52.511719 C 49.253906 52.738281 49.121094 53.265625 49.328125 53.910156 C 49.371094 54.0625 49.355469 54.132812 49.238281 54.167969 C 49.003906 54.265625 48.851562 54.023438 48.753906 53.398438 C 48.601562 52.488281 48.277344 52.363281 47.621094 52.960938 C 47.398438 53.167969 47.191406 53.308594 47.164062 53.28125 C 47.136719 53.253906 47.179688 52.933594 47.261719 52.574219 C 47.386719 51.996094 47.460938 51.871094 47.882812 51.429688 C 48.140625 51.164062 48.445312 50.789062 48.554688 50.609375 C 48.789062 50.214844 49.011719 49.402344 49.011719 48.925781 C 49.011719 48.585938 49.011719 48.578125 49.535156 48.433594 C 50.109375 48.265625 50.332031 48.238281 50.566406 48.335938 C 50.683594 48.398438 50.753906 48.335938 50.890625 48.03125 C 51.015625 47.746094 51.175781 47.585938 51.535156 47.378906 C 51.804688 47.226562 52.109375 47.109375 52.226562 47.128906 C 52.371094 47.148438 52.421875 47.101562 52.421875 46.96875 C 52.421875 46.753906 52.253906 46.734375 51.796875 46.90625 Z M 45.089844 49.425781 C 44.992188 50 44.777344 50.9375 44.738281 51 C 44.710938 51.046875 44.453125 50.859375 44.15625 50.589844 C 43.859375 50.332031 43.4375 50.019531 43.222656 49.902344 C 43 49.785156 42.820312 49.660156 42.820312 49.625 C 42.820312 49.578125 42.972656 49.554688 43.160156 49.542969 C 43.339844 49.542969 43.777344 49.488281 44.121094 49.425781 C 44.8125 49.3125 45.117188 49.3125 45.089844 49.425781 Z M 45.089844 49.425781 "/>
<path style=" stroke:none;fill-rule:nonzero;fill:rgb(0%,0%,0%);fill-opacity:1;" d="M 25.988281 46.996094 C 25.671875 47.210938 24.488281 47.59375 23.339844 47.851562 C 22.253906 48.09375 21.625 48.191406 19.839844 48.390625 C 16.105469 48.792969 15.878906 48.835938 15.601562 49.078125 C 15.339844 49.3125 15.402344 49.597656 15.761719 49.894531 C 16.085938 50.160156 16.113281 50.347656 15.816406 50.339844 C 15.539062 50.339844 13.355469 50.535156 12.164062 50.671875 C 11.527344 50.75 10.664062 50.832031 10.261719 50.859375 C 9.847656 50.894531 9.515625 50.957031 9.515625 51.011719 C 9.515625 51.109375 10.207031 51.074219 13.015625 50.804688 C 15.710938 50.5625 16.902344 50.546875 17.296875 50.75 C 17.71875 50.964844 18.484375 51.699219 18.671875 52.066406 C 18.914062 52.53125 18.894531 52.71875 18.535156 54.085938 C 18.167969 55.472656 18.132812 56.027344 18.402344 56.171875 C 18.789062 56.378906 19.09375 55.984375 19.523438 54.703125 C 19.703125 54.175781 19.75 53.863281 19.75 53.167969 C 19.75 52.324219 20.035156 50.597656 20.199219 50.421875 C 20.234375 50.375 20.402344 50.320312 20.566406 50.304688 C 21.554688 50.195312 23.3125 50.082031 24.640625 50.035156 C 25.484375 50.007812 26.230469 49.972656 26.300781 49.957031 C 26.578125 49.875 28.023438 49.8125 30.042969 49.804688 C 31.195312 49.792969 32.109375 49.765625 32.089844 49.730469 C 32.011719 49.597656 27.488281 49.480469 27.289062 49.597656 C 27.253906 49.625 26.5 49.660156 25.621094 49.6875 C 24.730469 49.722656 23.546875 49.777344 22.980469 49.820312 C 22.414062 49.875 21.570312 49.910156 21.113281 49.910156 L 20.277344 49.910156 L 20.332031 49.160156 L 21.003906 49.042969 C 22.910156 48.710938 24.902344 48.246094 25.339844 48.015625 C 25.421875 47.96875 25.492188 47.871094 25.492188 47.78125 C 25.492188 47.703125 25.609375 47.574219 25.753906 47.511719 C 25.898438 47.449219 26.121094 47.316406 26.246094 47.21875 C 26.605469 46.933594 26.363281 46.726562 25.988281 46.996094 Z M 19.558594 49.703125 L 19.425781 50.042969 L 18.6875 50.070312 C 18.042969 50.089844 17.890625 50.0625 17.496094 49.855469 C 17.246094 49.730469 17.066406 49.605469 17.101562 49.570312 C 17.191406 49.472656 19.515625 49.222656 19.605469 49.300781 C 19.648438 49.339844 19.632812 49.507812 19.558594 49.703125 Z M 19.226562 51.089844 C 19.164062 51.152344 19.039062 51.082031 18.859375 50.886719 C 18.519531 50.511719 18.519531 50.464844 18.832031 50.394531 C 18.96875 50.367188 19.121094 50.332031 19.164062 50.320312 C 19.28125 50.285156 19.335938 50.984375 19.226562 51.089844 Z M 19.226562 51.089844 "/>
<path style=" stroke:none;fill-rule:nonzero;fill:rgb(0%,0%,0%);fill-opacity:1;" d="M 32.359375 46.949219 C 32.332031 46.996094 32.398438 47.066406 32.503906 47.09375 C 32.710938 47.164062 32.808594 47.101562 32.71875 46.96875 C 32.648438 46.851562 32.433594 46.84375 32.359375 46.949219 Z M 32.359375 46.949219 "/>
<path style=" stroke:none;fill-rule:nonzero;fill:rgb(0%,0%,0%);fill-opacity:1;" d="M 54.398438 47.085938 C 54.398438 47.210938 53.699219 47.496094 53.394531 47.496094 C 53.0625 47.496094 53.332031 47.664062 53.753906 47.726562 C 54.238281 47.800781 54.398438 47.898438 54.398438 48.128906 C 54.398438 48.230469 54.460938 48.300781 54.535156 48.300781 C 54.605469 48.300781 54.667969 48.371094 54.667969 48.46875 C 54.667969 48.890625 55.492188 49.035156 55.601562 48.632812 C 55.683594 48.308594 55.671875 48.292969 55.339844 48.320312 C 55.171875 48.328125 55.007812 48.308594 54.972656 48.28125 C 54.882812 48.183594 55.027344 48.03125 55.207031 48.03125 C 55.421875 48.03125 55.519531 47.878906 55.394531 47.738281 C 55.351562 47.675781 55.324219 47.53125 55.351562 47.433594 C 55.394531 47.28125 55.339844 47.210938 55.125 47.101562 C 54.785156 46.921875 54.398438 46.914062 54.398438 47.085938 Z M 54.398438 47.085938 "/>
<path style=" stroke:none;fill-rule:nonzero;fill:rgb(0%,0%,0%);fill-opacity:1;" d="M 44.046875 47.109375 C 43.941406 47.210938 43.976562 47.46875 44.121094 47.585938 C 44.28125 47.71875 44.523438 47.566406 44.523438 47.316406 C 44.523438 47.109375 44.191406 46.96875 44.046875 47.109375 Z M 44.046875 47.109375 "/>
<path style=" stroke:none;fill-rule:nonzero;fill:rgb(0%,0%,0%);fill-opacity:1;" d="M 45.429688 47.566406 C 45.3125 47.78125 45.464844 47.941406 45.753906 47.941406 C 46.003906 47.941406 46.113281 47.726562 45.960938 47.539062 C 45.808594 47.351562 45.539062 47.371094 45.429688 47.566406 Z M 45.429688 47.566406 "/>
<path style=" stroke:none;fill-rule:nonzero;fill:rgb(0%,0%,0%);fill-opacity:1;" d="M 50.988281 49.464844 C 50.988281 49.578125 51.050781 49.640625 51.167969 49.640625 C 51.285156 49.640625 51.347656 49.578125 51.347656 49.464844 C 51.347656 49.347656 51.285156 49.285156 51.167969 49.285156 C 51.050781 49.285156 50.988281 49.347656 50.988281 49.464844 Z M 50.988281 49.464844 "/>
<path style=" stroke:none;fill-rule:nonzero;fill:rgb(0%,0%,0%);fill-opacity:1;" d="M 32.675781 49.464844 C 32.820312 49.554688 32.773438 49.578125 32.359375 49.667969 C 32.261719 49.695312 32.386719 49.714844 32.628906 49.722656 C 33.132812 49.730469 33.546875 49.5625 33.078125 49.542969 C 32.808594 49.527344 32.808594 49.527344 33.125 49.464844 C 33.421875 49.402344 33.410156 49.402344 32.988281 49.382812 C 32.683594 49.382812 32.585938 49.402344 32.675781 49.464844 Z M 32.675781 49.464844 "/>
<path style=" stroke:none;fill-rule:nonzero;fill:rgb(0%,0%,0%);fill-opacity:1;" d="M 35.054688 49.464844 C 35.027344 49.507812 35.082031 49.554688 35.1875 49.554688 C 35.296875 49.554688 35.351562 49.507812 35.324219 49.464844 C 35.296875 49.410156 35.234375 49.375 35.1875 49.375 C 35.144531 49.375 35.082031 49.410156 35.054688 49.464844 Z M 35.054688 49.464844 "/>
<path style=" stroke:none;fill-rule:nonzero;fill:rgb(0%,0%,0%);fill-opacity:1;" d="M 34.109375 49.6875 C 33.914062 49.757812 33.707031 49.9375 33.511719 50.214844 C 33.265625 50.574219 33.214844 50.734375 33.214844 51.117188 C 33.214844 51.519531 33.1875 51.609375 33.035156 51.65625 C 32.40625 51.851562 31.867188 52.753906 31.867188 53.613281 C 31.867188 55.222656 33.582031 56.269531 35.019531 55.546875 C 35.664062 55.214844 36.023438 54.667969 36.222656 53.730469 C 36.265625 53.496094 36.285156 53.488281 36.859375 53.488281 C 37.371094 53.488281 37.496094 53.453125 37.84375 53.210938 C 38.355469 52.863281 38.402344 52.738281 38.140625 52.46875 L 37.933594 52.253906 L 37.675781 52.46875 C 37.433594 52.675781 37.351562 52.683594 36.210938 52.683594 C 35.042969 52.683594 34.992188 52.691406 34.785156 52.90625 C 34.535156 53.148438 34.488281 53.585938 34.695312 53.757812 C 34.800781 53.847656 34.875 53.828125 35.0625 53.675781 C 35.332031 53.460938 35.546875 53.433594 35.546875 53.597656 C 35.539062 53.847656 35.199219 54.445312 34.929688 54.679688 C 34.777344 54.804688 34.507812 54.957031 34.335938 55 C 33.265625 55.296875 32.269531 53.9375 32.855469 52.980469 C 33.078125 52.613281 33.464844 52.414062 33.976562 52.414062 C 34.496094 52.414062 34.558594 52.273438 34.246094 51.808594 C 33.914062 51.304688 33.859375 50.875 34.101562 50.636719 C 34.371094 50.367188 34.722656 50.382812 34.828125 50.679688 C 34.882812 50.804688 34.917969 51 34.917969 51.117188 C 34.917969 51.253906 34.980469 51.351562 35.097656 51.386719 C 35.351562 51.46875 35.441406 51.386719 35.511719 51.027344 C 35.601562 50.554688 35.484375 50.125 35.1875 49.847656 C 34.890625 49.570312 34.585938 49.527344 34.109375 49.6875 Z M 34.109375 49.6875 "/>
<path style=" stroke:none;fill-rule:nonzero;fill:rgb(0%,0%,0%);fill-opacity:1;" d="M 51.8125 50.347656 C 51.742188 50.382812 51.707031 50.519531 51.722656 50.636719 C 51.742188 50.796875 51.804688 50.851562 51.976562 50.851562 C 52.144531 50.851562 52.207031 50.796875 52.226562 50.636719 C 52.253906 50.457031 52.128906 50.269531 51.976562 50.269531 C 51.949219 50.269531 51.875 50.304688 51.8125 50.347656 Z M 51.8125 50.347656 "/>
<path style=" stroke:none;fill-rule:nonzero;fill:rgb(0%,0%,0%);fill-opacity:1;" d="M 8.242188 51.226562 C 8.347656 51.242188 8.511719 51.242188 8.601562 51.226562 C 8.679688 51.199219 8.589844 51.179688 8.394531 51.191406 C 8.195312 51.191406 8.125 51.207031 8.242188 51.226562 Z M 8.242188 51.226562 "/>
<path style=" stroke:none;fill-rule:nonzero;fill:rgb(0%,0%,0%);fill-opacity:1;" d="M 52.890625 51.269531 C 52.746094 51.414062 52.753906 51.53125 52.917969 51.851562 C 53.125 52.261719 53.257812 52.34375 53.535156 52.234375 C 53.714844 52.171875 53.769531 52.09375 53.769531 51.894531 C 53.769531 51.628906 53.535156 51.339844 53.3125 51.339844 C 53.242188 51.339844 53.132812 51.296875 53.089844 51.253906 C 53.023438 51.191406 52.960938 51.199219 52.890625 51.269531 Z M 52.890625 51.269531 "/>
<path style=" stroke:none;fill-rule:nonzero;fill:rgb(0%,0%,0%);fill-opacity:1;" d="M 61.886719 51.296875 C 61.8125 51.46875 61.910156 51.609375 62.117188 51.609375 C 62.289062 51.609375 62.386719 51.457031 62.324219 51.269531 C 62.269531 51.117188 61.949219 51.136719 61.886719 51.296875 Z M 61.886719 51.296875 "/>
<path style=" stroke:none;fill-rule:nonzero;fill:rgb(0%,0%,0%);fill-opacity:1;" d="M 24.148438 51.519531 C 24.046875 51.617188 23.96875 51.761719 23.96875 51.832031 C 23.96875 51.984375 24.28125 52.324219 24.417969 52.324219 C 24.550781 52.324219 24.867188 51.984375 24.867188 51.832031 C 24.867188 51.679688 24.550781 51.339844 24.417969 51.339844 C 24.371094 51.339844 24.246094 51.421875 24.148438 51.519531 Z M 24.148438 51.519531 "/>
<path style=" stroke:none;fill-rule:nonzero;fill:rgb(0%,0%,0%);fill-opacity:1;" d="M 21.796875 52.371094 C 21.410156 52.691406 21.300781 52.746094 21.230469 52.648438 C 21.015625 52.371094 20.59375 52.441406 20.378906 52.789062 C 20.160156 53.148438 20.144531 53.558594 20.339844 53.835938 C 20.492188 54.050781 20.71875 54.0625 21.265625 53.882812 C 21.453125 53.828125 21.472656 53.835938 21.417969 53.988281 C 21.382812 54.078125 21.328125 54.464844 21.3125 54.828125 C 21.257812 55.582031 21.355469 55.859375 21.734375 56.074219 C 22.15625 56.304688 22.65625 56.019531 23.214844 55.25 L 23.394531 54.992188 L 23.726562 55.1875 C 24.136719 55.429688 24.550781 55.394531 25.054688 55.054688 C 25.242188 54.929688 25.421875 54.828125 25.457031 54.828125 C 25.484375 54.828125 25.484375 54.980469 25.449219 55.160156 C 25.152344 56.707031 24.632812 60.636719 24.695312 60.796875 C 24.75 60.949219 24.847656 61 25.027344 61 C 25.414062 61 25.414062 60.992188 25.988281 58.253906 C 26.15625 57.425781 26.390625 56.429688 26.507812 56.039062 C 26.707031 55.339844 26.714844 55.332031 27 55.3125 C 27.746094 55.277344 28.457031 54.765625 28.714844 54.078125 C 28.769531 53.953125 28.851562 53.847656 28.90625 53.847656 C 28.949219 53.847656 28.996094 53.773438 28.996094 53.683594 C 28.996094 53.578125 29.121094 53.480469 29.371094 53.398438 C 29.738281 53.265625 29.992188 53.015625 29.875 52.898438 C 29.839844 52.871094 29.648438 52.90625 29.445312 52.988281 C 28.941406 53.183594 28.84375 53.167969 28.789062 52.871094 C 28.6875 52.386719 28.167969 52.066406 27.691406 52.183594 C 27.40625 52.253906 26.777344 52.808594 26.605469 53.15625 C 26.417969 53.507812 26.355469 53.40625 26.382812 52.789062 C 26.417969 51.824219 25.953125 51.894531 25.808594 52.871094 C 25.753906 53.21875 25.664062 53.371094 25.242188 53.800781 C 24.957031 54.078125 24.613281 54.375 24.46875 54.445312 C 24.058594 54.660156 24.003906 54.5 24.183594 53.683594 C 24.371094 52.871094 24.355469 52.648438 24.085938 52.613281 C 23.941406 52.59375 23.851562 52.65625 23.742188 52.871094 C 23.652344 53.023438 23.355469 53.550781 23.070312 54.035156 C 22.316406 55.285156 22.082031 55.527344 22.082031 55.027344 C 22.082031 54.679688 22.296875 53.945312 22.613281 53.183594 C 22.925781 52.425781 22.945312 52.308594 22.746094 52.109375 C 22.523438 51.886719 22.316406 51.941406 21.796875 52.371094 Z M 28.007812 53.03125 C 28.007812 53.078125 28.035156 53.175781 28.0625 53.253906 C 28.097656 53.34375 28 53.445312 27.746094 53.570312 C 27.296875 53.800781 27.164062 53.808594 27.28125 53.597656 C 27.496094 53.191406 28.007812 52.800781 28.007812 53.03125 Z M 28.007812 53.03125 "/>
<path style=" stroke:none;fill-rule:nonzero;fill:rgb(0%,0%,0%);fill-opacity:1;" d="M 54.085938 52.058594 C 54.046875 52.121094 54.058594 52.199219 54.109375 52.253906 C 54.238281 52.378906 54.515625 52.273438 54.46875 52.121094 C 54.417969 51.976562 54.164062 51.933594 54.085938 52.058594 Z M 54.085938 52.058594 "/>
<path style=" stroke:none;fill-rule:nonzero;fill:rgb(0%,0%,0%);fill-opacity:1;" d="M 60.988281 52.191406 C 60.953125 52.273438 60.96875 52.378906 61.023438 52.433594 C 61.15625 52.566406 61.417969 52.441406 61.382812 52.261719 C 61.347656 52.058594 61.058594 52.003906 60.988281 52.191406 Z M 60.988281 52.191406 "/>
<path style=" stroke:none;fill-rule:nonzero;fill:rgb(0%,0%,0%);fill-opacity:1;" d="M 59.738281 52.773438 C 59.703125 52.835938 59.710938 52.914062 59.765625 52.96875 C 59.890625 53.09375 60.171875 52.988281 60.125 52.835938 C 60.070312 52.691406 59.820312 52.648438 59.738281 52.773438 Z M 59.738281 52.773438 "/>
</g>
</svg>
